<svg id="Layer_1" data-name="Layer 1" xmlns="http://www.w3.org/2000/svg" xmlns:xlink="http://www.w3.org/1999/xlink" viewBox="0 0 817.52 642.61"><defs><style>.cls-1{fill:none;}.cls-2{clip-path:url(#clip-path);}.cls-3{fill:url(#linear-gradient);}.cls-4{clip-path:url(#clip-path-2);}.cls-5{fill:url(#linear-gradient-2);}.cls-6{clip-path:url(#clip-path-3);}.cls-7{fill:url(#linear-gradient-3);}.cls-8{clip-path:url(#clip-path-4);}.cls-9{fill:url(#linear-gradient-4);}.cls-10{clip-path:url(#clip-path-5);}.cls-11{fill:url(#linear-gradient-5);}.cls-12{clip-path:url(#clip-path-6);}.cls-13{fill:url(#linear-gradient-6);}.cls-14{clip-path:url(#clip-path-7);}.cls-15{fill:url(#linear-gradient-7);}.cls-16{clip-path:url(#clip-path-8);}.cls-17{fill:url(#linear-gradient-8);}.cls-18{clip-path:url(#clip-path-9);}.cls-19{fill:url(#linear-gradient-9);}.cls-20{clip-path:url(#clip-path-10);}.cls-21{fill:url(#linear-gradient-10);}.cls-22{clip-path:url(#clip-path-11);}.cls-23{fill:url(#linear-gradient-11);}.cls-24{clip-path:url(#clip-path-12);}.cls-25{fill:url(#linear-gradient-12);}.cls-26{clip-path:url(#clip-path-13);}.cls-27{fill:url(#linear-gradient-13);}.cls-28{clip-path:url(#clip-path-14);}.cls-29{fill:url(#linear-gradient-14);}.cls-30{clip-path:url(#clip-path-15);}.cls-31{fill:url(#linear-gradient-15);}.cls-32{clip-path:url(#clip-path-16);}.cls-33{fill:url(#linear-gradient-16);}.cls-34{clip-path:url(#clip-path-17);}.cls-35{fill:url(#linear-gradient-17);}.cls-36{clip-path:url(#clip-path-18);}.cls-37{fill:url(#linear-gradient-18);}.cls-38{clip-path:url(#clip-path-19);}.cls-39{fill:url(#linear-gradient-19);}.cls-40{clip-path:url(#clip-path-20);}.cls-41{fill:url(#linear-gradient-20);}.cls-42{clip-path:url(#clip-path-21);}.cls-43{fill:url(#linear-gradient-21);}.cls-44{clip-path:url(#clip-path-22);}.cls-45{fill:url(#linear-gradient-22);}.cls-46{clip-path:url(#clip-path-23);}.cls-47{fill:url(#linear-gradient-23);}.cls-48{clip-path:url(#clip-path-24);}.cls-49{fill:url(#linear-gradient-24);}.cls-50{clip-path:url(#clip-path-25);}.cls-51{fill:url(#linear-gradient-25);}.cls-52{clip-path:url(#clip-path-26);}.cls-53{fill:url(#linear-gradient-26);}.cls-54{clip-path:url(#clip-path-27);}.cls-55{fill:url(#linear-gradient-27);}.cls-56{clip-path:url(#clip-path-28);}.cls-57{fill:url(#linear-gradient-28);}.cls-58{clip-path:url(#clip-path-29);}.cls-59{fill:url(#linear-gradient-29);}.cls-60{clip-path:url(#clip-path-30);}.cls-61{fill:url(#linear-gradient-30);}.cls-62{clip-path:url(#clip-path-31);}.cls-63{fill:url(#linear-gradient-31);}.cls-64{clip-path:url(#clip-path-32);}.cls-65{fill:url(#linear-gradient-32);}.cls-66{clip-path:url(#clip-path-33);}.cls-67{fill:url(#linear-gradient-33);}.cls-68{clip-path:url(#clip-path-34);}.cls-69{fill:url(#linear-gradient-34);}.cls-70{clip-path:url(#clip-path-35);}.cls-71{fill:url(#linear-gradient-35);}.cls-72{clip-path:url(#clip-path-36);}.cls-73{fill:url(#linear-gradient-36);}.cls-74{clip-path:url(#clip-path-37);}.cls-75{fill:url(#linear-gradient-37);}.cls-76{clip-path:url(#clip-path-38);}.cls-77{fill:url(#linear-gradient-38);}</style><clipPath id="clip-path" transform="translate(-91.24 -62.16)"><polygon class="cls-1" points="148.91 655.74 148.91 704.35 143.79 704.35 143.79 665.46 123.95 698.17 121.42 698.17 101.58 665.67 101.58 704.35 96.45 704.35 96.45 655.74 100.86 655.74 122.79 691.78 144.51 655.74 148.91 655.74"/></clipPath><linearGradient id="linear-gradient" y1="800" x2="1" y2="800" gradientTransform="matrix(0, 76.65, 76.65, 0, -61291.36, 577.1)" gradientUnits="userSpaceOnUse"><stop offset="0" stop-color="#fff23a"/><stop offset="0.04" stop-color="#fee62d"/><stop offset="0.12" stop-color="#fed41a"/><stop offset="0.2" stop-color="#fdc90f"/><stop offset="0.28" stop-color="#fdc60b"/><stop offset="0.67" stop-color="#f28f3f"/><stop offset="0.89" stop-color="#ed693c"/><stop offset="1" stop-color="#e83e39"/></linearGradient><clipPath id="clip-path-2" transform="translate(-91.24 -62.16)"><polygon class="cls-1" points="208.29 699.9 208.29 704.35 172.57 704.35 172.57 655.74 207.21 655.74 207.21 660.18 177.91 660.18 177.91 677.47 204.04 677.47 204.04 681.85 177.91 681.85 177.91 699.9 208.29 699.9"/></clipPath><linearGradient id="linear-gradient-2" y1="800" y2="800" gradientTransform="matrix(0, 76.65, 76.65, 0, -61223.61, 577.1)" xlink:href="#linear-gradient"/><clipPath id="clip-path-3" transform="translate(-91.24 -62.16)"><polygon class="cls-1" points="280.52 655.74 280.52 704.35 275.4 704.35 275.4 665.46 255.56 698.17 253.03 698.17 233.19 665.67 233.19 704.35 228.06 704.35 228.06 655.74 232.46 655.74 254.4 691.78 276.12 655.74 280.52 655.74"/></clipPath><linearGradient id="linear-gradient-3" y1="800" y2="800" gradientTransform="matrix(0, 76.65, 76.65, 0, -61159.76, 577.1)" xlink:href="#linear-gradient"/><clipPath id="clip-path-4" transform="translate(-91.24 -62.16)"><path class="cls-1" d="M309.52,681.85h17.83c8.87,0,13.71,2.78,13.71,9.09s-4.84,9.17-13.71,9.17H309.52Zm0-21.88h16.09c8.09,0,12.78,3,12.78,8.82s-4.69,8.82-12.78,8.82H309.52Zm-5.34-4.23v48.61h23.24c12.63,0,19-4.73,19-13,0-6.6-3.9-10.69-10.39-12.08,4.62-1.81,7.72-5.49,7.72-11,0-7.92-6.5-12.5-17.75-12.5Z"/></clipPath><linearGradient id="linear-gradient-4" y1="800" y2="800" gradientTransform="matrix(0, 76.65, 76.65, 0, -61088.76, 577.1)" xlink:href="#linear-gradient"/><clipPath id="clip-path-5" transform="translate(-91.24 -62.16)"><polygon class="cls-1" points="365.8 655.74 365.8 704.35 401.52 704.35 401.52 699.9 371.14 699.9 371.14 681.85 397.26 681.85 397.26 677.47 371.14 677.47 371.14 660.18 400.44 660.18 400.44 655.74 365.8 655.74"/></clipPath><linearGradient id="linear-gradient-5" y1="800" y2="800" gradientTransform="matrix(0, 76.65, 76.65, 0, -61030.38, 577.1)" xlink:href="#linear-gradient"/><clipPath id="clip-path-6" transform="translate(-91.24 -62.16)"><path class="cls-1" d="M426.63,660.18h13.42c10.1,0,15.44,4.45,15.44,12.22s-5.34,12.15-15.44,12.15H426.63Zm-5.34-4.44v48.61h5.34V688.93H440.2a37.1,37.1,0,0,0,4-.21l11.54,15.63h5.85l-12.34-16.67c7.36-2.29,11.54-7.64,11.54-15.28,0-10.41-7.79-16.66-20.63-16.66Z"/></clipPath><linearGradient id="linear-gradient-6" y1="800" y2="800" gradientTransform="matrix(0, 76.65, 76.65, 0, -60972.59, 577.1)" xlink:href="#linear-gradient"/><clipPath id="clip-path-7" transform="translate(-91.24 -62.16)"><path class="cls-1" d="M477.06,668.65c0,18,31.11,9.79,31.11,23.13,0,4.79-4.12,8.61-13.57,8.61-6.64,0-13.06-2.5-16.67-5.91l-2.09,4c3.75,3.75,11.18,6.32,18.76,6.32,12.92,0,18.83-6.11,18.83-13.26,0-17.71-31.1-9.65-31.1-23,0-4.86,4.12-8.81,13.35-8.81a26.75,26.75,0,0,1,13.86,4l1.8-4.1c-4-2.7-10-4.3-15.66-4.3-12.84,0-18.62,6.18-18.62,13.33"/></clipPath><linearGradient id="linear-gradient-7" y1="800" y2="800" gradientTransform="matrix(0, 76.65, 76.65, 0, -60919.41, 577.1)" xlink:href="#linear-gradient"/><clipPath id="clip-path-8" transform="translate(-91.24 -62.16)"><polygon class="cls-1" points="569.21 655.74 569.21 677.4 537.6 677.4 537.6 655.74 532.26 655.74 532.26 704.35 537.6 704.35 537.6 681.92 569.21 681.92 569.21 704.35 574.48 704.35 574.48 655.74 569.21 655.74"/></clipPath><linearGradient id="linear-gradient-8" y1="800" y2="800" gradientTransform="matrix(0, 76.65, 76.65, 0, -60860.68, 577.1)" xlink:href="#linear-gradient"/><clipPath id="clip-path-9" transform="translate(-91.24 -62.16)"><rect class="cls-1" x="598.14" y="655.74" width="5.34" height="48.61"/></clipPath><linearGradient id="linear-gradient-9" y1="800" y2="800" gradientTransform="matrix(0, 76.65, 76.65, 0, -60813.24, 577.1)" xlink:href="#linear-gradient"/><clipPath id="clip-path-10" transform="translate(-91.24 -62.16)"><path class="cls-1" d="M632.48,660.18H645.9c10.11,0,15.45,4.45,15.45,12.22S656,684.49,645.9,684.49H632.48Zm-5.34-4.44v48.61h5.34V689h13.57c12.84,0,20.64-6.25,20.64-16.6s-7.8-16.66-20.64-16.66Z"/></clipPath><linearGradient id="linear-gradient-10" y1="800" y2="800" gradientTransform="matrix(0, 76.65, 76.65, 0, -60767.13, 577.1)" xlink:href="#linear-gradient"/><clipPath id="clip-path-11" transform="translate(-91.24 -62.16)"><path class="cls-1" d="M717.62,660.18H731c10.11,0,15.45,4.45,15.45,12.22s-5.34,12.09-15.45,12.09H717.62Zm-5.34-4.44v48.61h5.34V689h13.57c12.84,0,20.64-6.25,20.64-16.6s-7.8-16.66-20.64-16.66Z"/></clipPath><linearGradient id="linear-gradient-11" y1="800" y2="800" gradientTransform="matrix(0, 76.65, 76.65, 0, -60681.99, 577.1)" xlink:href="#linear-gradient"/><clipPath id="clip-path-12" transform="translate(-91.24 -62.16)"><path class="cls-1" d="M785.67,661.08l12.12,26.11H773.54Zm-2.6-5.34L760,704.35h5.55l6.06-13h28.15l6.06,13h5.63l-23.09-48.61Z"/></clipPath><linearGradient id="linear-gradient-12" y1="800" y2="800" gradientTransform="matrix(0, 76.65, 76.65, 0, -60628.35, 577.1)" xlink:href="#linear-gradient"/><clipPath id="clip-path-13" transform="translate(-91.24 -62.16)"><polygon class="cls-1" points="856.24 655.74 838.92 683.03 821.6 655.74 815.9 655.74 836.1 687.54 836.1 704.35 841.37 704.35 841.37 687.54 861.58 655.74 856.24 655.74"/></clipPath><linearGradient id="linear-gradient-13" y1="800" y2="800" gradientTransform="matrix(0, 76.65, 76.65, 0, -60575.31, 577.1)" xlink:href="#linear-gradient"/><clipPath id="clip-path-14" transform="translate(-91.24 -62.16)"><path class="cls-1" d="M872.39,668.65c0,18,31.1,9.79,31.1,23.13,0,4.79-4.11,8.61-13.56,8.61-6.64,0-13.06-2.5-16.67-5.91l-2.09,4c3.75,3.75,11.18,6.32,18.76,6.32,12.91,0,18.83-6.11,18.83-13.26,0-17.71-31.1-9.65-31.1-23,0-4.86,4.12-8.81,13.35-8.81a26.77,26.77,0,0,1,13.86,4l1.8-4.1c-4-2.7-10-4.3-15.66-4.3-12.84,0-18.62,6.18-18.62,13.33"/></clipPath><linearGradient id="linear-gradient-14" y1="800" y2="800" gradientTransform="matrix(0, 76.65, 76.65, 0, -60524.08, 577.1)" xlink:href="#linear-gradient"/><clipPath id="clip-path-15" transform="translate(-91.24 -62.16)"><polygon class="cls-1" points="91.24 526.1 91.24 542.91 109.96 542.91 109.96 623.3 128.68 623.3 128.68 542.91 147.33 542.91 147.33 526.1 91.24 526.1"/></clipPath><linearGradient id="linear-gradient-15" y1="800" y2="800" gradientTransform="matrix(0, 188.3, 188.3, 0, -150612.06, 414.23)" xlink:href="#linear-gradient"/><clipPath id="clip-path-16" transform="translate(-91.24 -62.16)"><path class="cls-1" d="M157,526.1v97.2h18.21v-37q0-10.32,2.73-15.09Q182,564,190.54,564q7.19,0,11.1,4.41,4.37,4.92,4.37,17.66V623.3h18.2V582.14A56.67,56.67,0,0,0,223,568.93a25.21,25.21,0,0,0-4.29-9.14A31.43,31.43,0,0,0,194.83,548a28.47,28.47,0,0,0-19.6,7.48V526.1Z"/></clipPath><linearGradient id="linear-gradient-16" y1="800" y2="800" gradientTransform="matrix(0, 188.3, 188.3, 0, -150540.72, 414.23)" xlink:href="#linear-gradient"/><clipPath id="clip-path-17" transform="translate(-91.24 -62.16)"><path class="cls-1" d="M260.1,602.08a22.21,22.21,0,0,1-5.4-14.88,25,25,0,0,1,1.59-8.58,23.41,23.41,0,0,1,4.25-7.44q6.38-7.2,16.58-7.19a22.38,22.38,0,0,1,16.28,6.76q5.93,6.12,5.92,16.09a23,23,0,0,1-5.92,16.1,21.06,21.06,0,0,1-16.21,6.83,21.44,21.44,0,0,1-17.09-7.69m-13-42.58q-10.59,11-10.59,27A43.74,43.74,0,0,0,239.6,603a34.9,34.9,0,0,0,13.62,16.73,36,36,0,0,0,40.55-.57,33.29,33.29,0,0,0,6.07-4.84v9h16.64V550.38H299.84v9.26a30.2,30.2,0,0,0-5.85-5.27A33.64,33.64,0,0,0,274.38,548a36.25,36.25,0,0,0-27.3,11.54"/></clipPath><linearGradient id="linear-gradient-17" y1="800" y2="800" gradientTransform="matrix(0, 188.3, 188.3, 0, -150454.85, 414.23)" xlink:href="#linear-gradient"/><clipPath id="clip-path-18" transform="translate(-91.24 -62.16)"><polygon class="cls-1" points="435.4 526.1 435.4 596.81 393.37 526.1 372.06 526.1 372.06 623.3 390.78 623.3 390.78 552.66 433.18 623.3 454.12 623.3 454.12 526.1 435.4 526.1"/></clipPath><linearGradient id="linear-gradient-18" y1="800" x2="1" y2="800" gradientTransform="matrix(0, 188.3, 188.3, 0, -150318.25, 414.23)" gradientUnits="userSpaceOnUse"><stop offset="0" stop-color="#27b6ea"/><stop offset="1" stop-color="#037dbf"/></linearGradient><clipPath id="clip-path-19" transform="translate(-91.24 -62.16)"><path class="cls-1" d="M495.45,568.15a21.45,21.45,0,0,1,13.73-4.66c5.81,0,10.63,1.75,14.42,5.27a22.86,22.86,0,0,1,6.81,11.75H487.72a21.76,21.76,0,0,1,7.73-12.36m-3.74-16.84a39.52,39.52,0,0,0-22.64,35.6,38.72,38.72,0,0,0,18.5,32.83,40.66,40.66,0,0,0,21.53,6,37.66,37.66,0,0,0,25-9.18,35,35,0,0,0,11.32-16.31h-20q-5.93,9.48-16.87,9.47a20.61,20.61,0,0,1-12.65-4.31,20.14,20.14,0,0,1-7.63-10.78h58.91a48.23,48.23,0,0,0,1-8.84,37.26,37.26,0,0,0-9.32-24.63q-11.62-13.68-29.9-13.68a40.25,40.25,0,0,0-17.24,3.85"/></clipPath><linearGradient id="linear-gradient-19" y1="800" y2="800" gradientTransform="matrix(0, 188.3, 188.3, 0, -150222.72, 414.23)" xlink:href="#linear-gradient-18"/><clipPath id="clip-path-20" transform="translate(-91.24 -62.16)"><polygon class="cls-1" points="562.97 526.1 562.97 550.38 554.09 550.38 554.09 566.41 562.97 566.41 562.97 623.3 581.17 623.3 581.17 566.41 592.05 566.41 592.05 550.38 581.17 550.38 581.17 526.1 562.97 526.1"/></clipPath><linearGradient id="linear-gradient-20" y1="800" y2="800" gradientTransform="matrix(0, 188.3, 188.3, 0, -150158.27, 414.23)" xlink:href="#linear-gradient-18"/><clipPath id="clip-path-21" transform="translate(-91.24 -62.16)"><polygon class="cls-1" points="682.26 550.38 668.12 594.89 655.76 550.38 641.34 550.38 628.75 594.89 614.84 550.38 595.38 550.38 622.76 623.3 633.86 623.3 648.44 576.02 662.72 623.3 673.97 623.3 701.57 550.38 682.26 550.38"/></clipPath><linearGradient id="linear-gradient-21" y1="800" y2="800" gradientTransform="matrix(0, 188.3, 188.3, 0, -150082.86, 414.23)" xlink:href="#linear-gradient-18"/><clipPath id="clip-path-22" transform="translate(-91.24 -62.16)"><path class="cls-1" d="M730.5,604.72q-8.21-6.63-8.21-18.16a21.24,21.24,0,0,1,5.47-14.67q7-7.9,16.8-7.9a21.26,21.26,0,0,1,13.84,5.27,23.51,23.51,0,0,1,2.59,33,20.63,20.63,0,0,1-16.5,7.48,21.62,21.62,0,0,1-14-5m-13-46.72q-13.47,11.76-13.47,28.2a38.18,38.18,0,0,0,6.22,21.29,39.09,39.09,0,0,0,15.39,13.68,40.12,40.12,0,0,0,18.5,4.55,40.73,40.73,0,0,0,26.72-9.54q13.83-11.38,13.83-29.41a36.45,36.45,0,0,0-10.21-25.92A39.3,39.3,0,0,0,744.64,548q-15.92.28-27.09,10"/></clipPath><linearGradient id="linear-gradient-22" y1="800" y2="800" gradientTransform="matrix(0, 188.3, 188.3, 0, -149986.92, 414.23)" xlink:href="#linear-gradient-18"/><clipPath id="clip-path-23" transform="translate(-91.24 -62.16)"><path class="cls-1" d="M830.77,548a18.72,18.72,0,0,0-8.92,1.89q-3.51,1.89-7.66,7v-6.49H797.54V623.3h18.21V582.36q0-8.48,4.1-12.78t12.4-4.6V548Z"/></clipPath><linearGradient id="linear-gradient-23" y1="800" y2="800" gradientTransform="matrix(0, 188.3, 188.3, 0, -149916.44, 414.23)" xlink:href="#linear-gradient-18"/><clipPath id="clip-path-24" transform="translate(-91.24 -62.16)"><polygon class="cls-1" points="841.72 526.1 841.72 623.3 859.92 623.3 859.92 589.19 885.9 623.3 908.76 623.3 877.98 586.06 905.28 550.38 884.27 550.38 859.92 584.71 859.92 526.1 841.72 526.1"/></clipPath><linearGradient id="linear-gradient-24" y1="800" y2="800" gradientTransform="matrix(0, 188.3, 188.3, 0, -149856.1, 414.23)" xlink:href="#linear-gradient-18"/><clipPath id="clip-path-25" transform="translate(-91.24 -62.16)"><path class="cls-1" d="M601.05,98.33A39.88,39.88,0,1,0,641.43,138c.05-21.85-18-39.69-40.15-39.69h-.23"/></clipPath><linearGradient id="linear-gradient-25" y1="800" y2="800" gradientTransform="matrix(0, 536.34, 536.34, 0, -428472.6, -36.03)" xlink:href="#linear-gradient-18"/><clipPath id="clip-path-26" transform="translate(-91.24 -62.16)"><path class="cls-1" d="M271.85,287.07A39.61,39.61,0,0,0,311.5,326.8c22.46.05,40.07-17.38,40.11-39.71a39.57,39.57,0,0,0-39.84-40h0a39.7,39.7,0,0,0-39.87,40"/></clipPath><linearGradient id="linear-gradient-26" y1="800" y2="800" gradientTransform="matrix(0, 536.34, 536.34, 0, -428762.32, 53)" xlink:href="#linear-gradient-18"/><clipPath id="clip-path-27" transform="translate(-91.24 -62.16)"><path class="cls-1" d="M391.09,126A30.7,30.7,0,1,0,421.8,95.24h-.15A30.39,30.39,0,0,0,391.09,126"/></clipPath><linearGradient id="linear-gradient-27" y1="800" y2="800" gradientTransform="matrix(0, 536.34, 536.34, 0, -428652.29, 14.73)" xlink:href="#linear-gradient-18"/><clipPath id="clip-path-28" transform="translate(-91.24 -62.16)"><path class="cls-1" d="M673,249.64a27.6,27.6,0,0,0,55.2.26,27.62,27.62,0,0,0-27.53-27.65h-.34A27.41,27.41,0,0,0,673,249.64"/></clipPath><linearGradient id="linear-gradient-28" y1="800" y2="800" gradientTransform="matrix(0, 536.34, 536.34, 0, -428373.51, -59.5)" xlink:href="#linear-gradient-18"/><clipPath id="clip-path-29" transform="translate(-91.24 -62.16)"><path class="cls-1" d="M325.84,232.16l12.36,5.24c8.61-13.39,16.07-27,25.54-39.09s20.91-22.5,31.5-33.67L385,155.5a201.48,201.48,0,0,0-59.16,76.66"/></clipPath><linearGradient id="linear-gradient-29" y1="800" y2="800" gradientTransform="matrix(0, 536.34, 536.34, 0, -428714.07, 35.31)" xlink:href="#linear-gradient"/><clipPath id="clip-path-30" transform="translate(-91.24 -62.16)"><path class="cls-1" d="M693.63,293.23c3,27.64-.65,54.37-9.3,80.42l14.29,4.06c9.22-27.65,12.83-55.65,9.82-84.48Z"/></clipPath><linearGradient id="linear-gradient-30" y1="800" y2="800" gradientTransform="matrix(0, 536.34, 536.34, 0, -428377.02, -55.47)" xlink:href="#linear-gradient"/><clipPath id="clip-path-31" transform="translate(-91.24 -62.16)"><path class="cls-1" d="M467.89,116.56c.33,5.24.63,10,.94,14.9a193.2,193.2,0,0,1,76.64-1c1.35-4.9,2.58-9.33,3.94-14.25a202,202,0,0,0-40.4-4.13,193.22,193.22,0,0,0-41.12,4.43"/></clipPath><linearGradient id="linear-gradient-31" y1="800" y2="800" gradientTransform="matrix(0, 536.34, 536.34, 0, -428565.54, -10.09)" xlink:href="#linear-gradient"/><clipPath id="clip-path-32" transform="translate(-91.24 -62.16)"><path class="cls-1" d="M639.64,179.36,670,218.15,681.2,210A191.9,191.9,0,0,0,648.62,169l-9,10.41"/></clipPath><linearGradient id="linear-gradient-32" y1="800" y2="800" gradientTransform="matrix(0, 536.34, 536.34, 0, -428413.96, -50.54)" xlink:href="#linear-gradient"/><clipPath id="clip-path-33" transform="translate(-91.24 -62.16)"><path class="cls-1" d="M348.65,346.06a43.15,43.15,0,0,0,18.94,35.76c-13.21,5.07-25.1,14.19-34.84,26.28a215.88,215.88,0,0,0,52.09,55.43c4.94-28.22,15.85-55.49,33.23-78.24.5-.66,1-1.29,1.52-1.94-1.22-.55-2.45-1.06-3.7-1.54a43.12,43.12,0,1,0-67.24-35.75"/></clipPath><linearGradient id="linear-gradient-33" y1="800" y2="800" gradientTransform="matrix(0, 618.67, 618.67, 0, -494644.06, -125.02)" xlink:href="#linear-gradient-18"/><clipPath id="clip-path-34" transform="translate(-91.24 -62.16)"><path class="cls-1" d="M590.73,346.06a43.12,43.12,0,0,0,18.94,35.75c-1.24.48-2.47,1-3.69,1.54.51.65,1,1.28,1.52,1.94,17.38,22.75,28.29,50,33.23,78.25a215.86,215.86,0,0,0,52.1-55.46C683.09,396,671.2,386.88,658,381.81a43.12,43.12,0,1,0-67.25-35.75"/></clipPath><linearGradient id="linear-gradient-34" y1="800" y2="800" gradientTransform="matrix(0, 618.67, 618.67, 0, -494385.98, -125.02)" xlink:href="#linear-gradient-18"/><clipPath id="clip-path-35" transform="translate(-91.24 -62.16)"><path class="cls-1" d="M460.58,317.18a52.2,52.2,0,0,0,22.94,43.25c-38.34,14.7-67.51,57.46-73.66,110.21a208.3,208.3,0,0,0,205.85,0c-6.14-52.75-35.32-95.52-73.62-110.22a52.23,52.23,0,1,0-81.51-43.25"/></clipPath><linearGradient id="linear-gradient-35" y1="800.02" y2="800.02" gradientTransform="matrix(0, 380.35, 380.35, 0, -303773.87, 245.5)" xlink:href="#linear-gradient"/><clipPath id="clip-path-36" transform="translate(-91.24 -62.16)"><path class="cls-1" d="M311.39,343.38a189,189,0,0,0,15.1,51.16c.14-.19.28-.39.43-.58a107.78,107.78,0,0,1,10.56-11.34c-4.27-13.72-8.47-27.24-12.72-40.92l-13.37,1.68"/></clipPath><linearGradient id="linear-gradient-36" y1="800" y2="800" gradientTransform="matrix(0, 536.34, 536.34, 0, -428749.14, 52.91)" xlink:href="#linear-gradient"/><clipPath id="clip-path-37" transform="translate(-91.24 -62.16)"><path class="cls-1" d="M660.47,295.56a55.88,55.88,0,0,1,7.78,6c3.79-4.29,9.12-12.72,12.57-17.39L673,278.52c-3.45,4.54-8.75,12.86-12.48,17"/></clipPath><linearGradient id="linear-gradient-37" y1="800" y2="800" gradientTransform="matrix(0, 536.34, 536.34, 0, -428403.36, -49.56)" xlink:href="#linear-gradient"/><clipPath id="clip-path-38" transform="translate(-91.24 -62.16)"><path class="cls-1" d="M398.33,228.28c.25-1.08,1.75-2.09,2.9-2.72q39.09-21.37,78.3-42.53c1.31-.7,4.26-.39,5.24.62,17.07,17.46,34,35.1,50.87,52.71a5,5,0,0,1,.53,1.21l-144,18.62c2-9.35,3.95-18.66,6.14-27.91m142.21-80c-16.86,6.38-33.77,12.63-50.51,19.32-3.93,1.58-6.44,1.42-9.47-1.58-5.8-5.74-12-11.07-18.18-16.7l-5.78,7.89,17.81,16.38-72.87,39.34c3-14,5.88-27.54,8.84-41.4l-8.81-3.34a24.73,24.73,0,0,0-1.1,3.07c-3.15,14.6-6.38,29.2-9.33,43.85a13.79,13.79,0,0,1-6.59,9.66c-11.08,7.16-21.87,14.78-33.06,22.43l6.34,7.49,27.37-18.88,1.18.64c-1.53,6.93-3,13.88-4.72,20.75-.21.81-2.11,1.45-3.32,1.68-5.32,1.05-10.68,1.92-16.34,2.9l3.7,9.07,13.68-1.92c-1.57,7.3-3.13,14.51-4.69,21.71a56.56,56.56,0,0,1,10.64-3.06q1.88-8.55,3.81-17.1c.34-1.52,2.72-3.42,4.39-3.68,18.32-2.91,36.65-5.83,55.06-8.15,14.67-1.84,29.36-3.56,44.05-5.27a66.66,66.66,0,0,1,20.18-3.12c1.61,0,3.2.08,4.78.19q11.31-1.34,22.61-2.74c4-.5,6.36.52,8.77,3.49q20.88,25.72,41.88,51.34a55.81,55.81,0,0,1,7.77-6.27L558.33,246c14.56-1,28.56-2.29,42.59-2.85,17.53-.71,35.08-.88,52.63-1.11,2.86,0,4.51-.57,4.86-3.73.21-1.93,1.1-3.78,1.76-5.9a28.94,28.94,0,0,0-3.16-.29c-34.18,1.45-68.37,2.83-102.54,4.49-3.43.17-5.65-.3-8-2.91q-17.58-19.26-35.58-38.12c-5.78-6.08-11.93-11.82-19-18.8l56-21.31-2.1-8.68c-2,.57-3.67.9-5.22,1.49"/></clipPath><linearGradient id="linear-gradient-38" y1="800.01" y2="800.01" gradientTransform="matrix(0, 536.34, 536.34, 0, -428572.55, -5.02)" xlink:href="#linear-gradient"/></defs><title>HS_Tha-Network</title><g class="cls-2"><rect class="cls-3" x="5.21" y="593.58" width="52.46" height="48.61"/></g><g class="cls-4"><rect class="cls-5" x="81.34" y="593.58" width="35.72" height="48.61"/></g><g class="cls-6"><rect class="cls-7" x="136.82" y="593.58" width="52.46" height="48.61"/></g><g class="cls-8"><rect class="cls-9" x="212.95" y="593.58" width="42.21" height="48.61"/></g><g class="cls-10"><rect class="cls-11" x="274.57" y="593.58" width="35.72" height="48.61"/></g><g class="cls-12"><rect class="cls-13" x="330.05" y="593.58" width="40.34" height="48.61"/></g><g class="cls-14"><rect class="cls-15" x="384.6" y="593.16" width="37.59" height="49.44"/></g><g class="cls-16"><rect class="cls-17" x="441.03" y="593.58" width="42.21" height="48.61"/></g><g class="cls-18"><rect class="cls-19" x="506.9" y="593.58" width="5.34" height="48.61"/></g><g class="cls-20"><rect class="cls-21" x="535.91" y="593.58" width="39.54" height="48.61"/></g><g class="cls-22"><rect class="cls-23" x="621.05" y="593.58" width="39.54" height="48.61"/></g><g class="cls-24"><rect class="cls-25" x="668.74" y="593.58" width="51.45" height="48.61"/></g><g class="cls-26"><rect class="cls-27" x="724.66" y="593.58" width="45.68" height="48.61"/></g><g class="cls-28"><rect class="cls-29" x="779.93" y="593.16" width="37.59" height="49.44"/></g><g class="cls-30"><rect class="cls-31" y="463.95" width="56.09" height="97.2"/></g><g class="cls-32"><rect class="cls-33" x="65.78" y="463.95" width="67.19" height="97.2"/></g><g class="cls-34"><rect class="cls-35" x="145.26" y="485.81" width="79.99" height="77.76"/></g><g class="cls-36"><rect class="cls-37" x="280.82" y="463.95" width="82.06" height="97.2"/></g><g class="cls-38"><rect class="cls-39" x="377.83" y="485.31" width="79.1" height="78.26"/></g><g class="cls-40"><rect class="cls-41" x="462.85" y="463.95" width="37.96" height="97.2"/></g><g class="cls-42"><rect class="cls-43" x="504.14" y="488.23" width="106.19" height="72.92"/></g><g class="cls-44"><rect class="cls-45" x="612.85" y="485.81" width="80.66" height="77.76"/></g><g class="cls-46"><rect class="cls-47" x="706.31" y="485.81" width="34.7" height="75.34"/></g><g class="cls-48"><rect class="cls-49" x="750.48" y="463.95" width="67.04" height="97.2"/></g><g class="cls-50"><rect class="cls-51" x="551.58" y="88.53" width="99.65" height="99.47" transform="translate(-105.66 115.67) rotate(-16.62)"/></g><g class="cls-52"><rect class="cls-53" x="262.03" y="237.29" width="99.37" height="99.31" transform="translate(-160.3 39.01) rotate(-16.62)"/></g><g class="cls-54"><rect class="cls-55" x="383.59" y="87.71" width="76.5" height="76.21" transform="translate(-109.6 63.78) rotate(-16.62)"/></g><g class="cls-56"><rect class="cls-57" x="666.22" y="215.49" width="68.71" height="68.56" transform="translate(-133.41 148.7) rotate(-16.62)"/></g><g class="cls-58"><rect class="cls-59" x="315.58" y="147.29" width="89.93" height="98.33" transform="translate(-132.37 49.2) rotate(-16.62)"/></g><g class="cls-60"><rect class="cls-61" x="672.81" y="291.12" width="50.15" height="88.71" transform="translate(-158.04 151.51) rotate(-16.62)"/></g><g class="cls-62"><rect class="cls-63" x="466.83" y="100.87" width="83.64" height="41.84" transform="translate(-104.82 88.44) rotate(-16.62)"/></g><g class="cls-64"><rect class="cls-65" x="633.47" y="164.03" width="53.9" height="59.03" transform="translate(-119.01 134.86) rotate(-16.62)"/></g><g class="cls-66"><rect class="cls-67" x="241.51" y="240.81" width="102.09" height="160.57"/></g><g class="cls-68"><rect class="cls-69" x="499.49" y="240.81" width="102.1" height="160.57"/></g><g class="cls-70"><rect class="cls-71" x="398.54" y="255.06" width="228.5" height="252.67" transform="translate(-127.41 -7.96) rotate(-5.84)"/></g><g class="cls-72"><rect class="cls-73" x="304.38" y="339.08" width="40.11" height="58.09" transform="translate(-182.99 46.04) rotate(-16.62)"/></g><g class="cls-74"><rect class="cls-75" x="657.6" y="276.09" width="26.09" height="27.89" transform="translate(-146.18 141.82) rotate(-16.62)"/></g><g class="cls-76"><rect class="cls-77" x="335.66" y="105.87" width="340.34" height="237.54" transform="translate(-134.36 91.94) rotate(-16.62)"/></g></svg>